<svg id="visual" viewBox="0 0 675 900" width="675" height="900" xmlns="http://www.w3.org/2000/svg" xmlns:xlink="http://www.w3.org/1999/xlink" version="1.1"><g stroke-width="1" stroke-linejoin="bevel"><path d="M370 460L363 482L404 483Z" fill="#443310" stroke="#0a0a05"></path><path d="M404 483L424 455L370 460Z" fill="#73571c" stroke="#0a0a05"></path><path d="M447 511L435 450L424 455Z" fill="#73571c" stroke="#0a0a05"></path><path d="M424 455L421 419L370 460Z" fill="#564115" stroke="#0a0a05"></path><path d="M363 482L390 540L404 483Z" fill="#69501a" stroke="#0a0a05"></path><path d="M404 483L447 511L424 455Z" fill="#69501a" stroke="#0a0a05"></path><path d="M289 447L322 501L363 482Z" fill="#7d5f1f" stroke="#0a0a05"></path><path d="M363 482L373 544L390 540Z" fill="#443310" stroke="#0a0a05"></path><path d="M322 501L373 544L363 482Z" fill="#443310" stroke="#0a0a05"></path><path d="M435 450L421 419L424 455Z" fill="#69501a" stroke="#0a0a05"></path><path d="M390 540L447 511L404 483Z" fill="#69501a" stroke="#0a0a05"></path><path d="M421 419L369 402L370 460Z" fill="#7d5f1f" stroke="#0a0a05"></path><path d="M370 460L289 447L363 482Z" fill="#564115" stroke="#0a0a05"></path><path d="M390 540L451 537L447 511Z" fill="#a67e29" stroke="#0a0a05"></path><path d="M387 603L451 537L390 540Z" fill="#4d3a12" stroke="#0a0a05"></path><path d="M326 556L365 569L373 544Z" fill="#4d3a12" stroke="#0a0a05"></path><path d="M373 544L365 569L390 540Z" fill="#876621" stroke="#0a0a05"></path><path d="M435 450L439 398L421 419Z" fill="#4d3a12" stroke="#0a0a05"></path><path d="M392 371L373 378L369 402Z" fill="#916e24" stroke="#0a0a05"></path><path d="M486 451L439 398L435 450Z" fill="#876621" stroke="#0a0a05"></path><path d="M478 508L435 450L447 511Z" fill="#564115" stroke="#0a0a05"></path><path d="M322 501L326 556L373 544Z" fill="#69501a" stroke="#0a0a05"></path><path d="M392 371L369 402L421 419Z" fill="#4d3a12" stroke="#0a0a05"></path><path d="M295 432L289 447L370 460Z" fill="#73571c" stroke="#0a0a05"></path><path d="M295 432L370 460L316 395Z" fill="#4d3a12" stroke="#0a0a05"></path><path d="M322 501L261 552L326 556Z" fill="#7d5f1f" stroke="#0a0a05"></path><path d="M316 395L370 460L369 402Z" fill="#604817" stroke="#0a0a05"></path><path d="M451 537L478 508L447 511Z" fill="#9c7626" stroke="#0a0a05"></path><path d="M326 556L332 568L365 569Z" fill="#604817" stroke="#0a0a05"></path><path d="M478 508L486 451L435 450Z" fill="#7d5f1f" stroke="#0a0a05"></path><path d="M439 398L392 371L421 419Z" fill="#73571c" stroke="#0a0a05"></path><path d="M309 369L316 395L373 378Z" fill="#443310" stroke="#0a0a05"></path><path d="M373 378L316 395L369 402Z" fill="#7d5f1f" stroke="#0a0a05"></path><path d="M490 577L488 526L451 537Z" fill="#73571c" stroke="#0a0a05"></path><path d="M451 537L488 526L478 508Z" fill="#9c7626" stroke="#0a0a05"></path><path d="M478 508L529 452L486 451Z" fill="#916e24" stroke="#0a0a05"></path><path d="M357 627L387 603L365 569Z" fill="#564115" stroke="#0a0a05"></path><path d="M365 569L387 603L390 540Z" fill="#9c7626" stroke="#0a0a05"></path><path d="M373 306L309 369L373 378Z" fill="#7d5f1f" stroke="#0a0a05"></path><path d="M316 395L278 393L295 432Z" fill="#a67e29" stroke="#0a0a05"></path><path d="M221 451L251 485L289 447Z" fill="#564115" stroke="#0a0a05"></path><path d="M495 404L469 376L439 398Z" fill="#564115" stroke="#0a0a05"></path><path d="M439 398L469 376L392 371Z" fill="#4d3a12" stroke="#0a0a05"></path><path d="M529 452L495 404L486 451Z" fill="#564115" stroke="#0a0a05"></path><path d="M486 451L495 404L439 398Z" fill="#443310" stroke="#0a0a05"></path><path d="M278 393L289 447L295 432Z" fill="#7d5f1f" stroke="#0a0a05"></path><path d="M289 447L251 485L322 501Z" fill="#564115" stroke="#0a0a05"></path><path d="M326 556L256 569L332 568Z" fill="#443310" stroke="#0a0a05"></path><path d="M309 369L278 393L316 395Z" fill="#564115" stroke="#0a0a05"></path><path d="M221 451L242 488L251 485Z" fill="#7d5f1f" stroke="#0a0a05"></path><path d="M251 485L261 552L322 501Z" fill="#a67e29" stroke="#0a0a05"></path><path d="M242 488L261 552L251 485Z" fill="#876621" stroke="#0a0a05"></path><path d="M332 568L357 627L365 569Z" fill="#a67e29" stroke="#0a0a05"></path><path d="M387 603L462 599L451 537Z" fill="#69501a" stroke="#0a0a05"></path><path d="M462 599L490 577L451 537Z" fill="#9c7626" stroke="#0a0a05"></path><path d="M538 510L529 452L478 508Z" fill="#564115" stroke="#0a0a05"></path><path d="M531 521L478 508L488 526Z" fill="#876621" stroke="#0a0a05"></path><path d="M469 376L391 329L392 371Z" fill="#443310" stroke="#0a0a05"></path><path d="M392 371L391 329L373 378Z" fill="#4d3a12" stroke="#0a0a05"></path><path d="M302 645L357 627L332 568Z" fill="#4d3a12" stroke="#0a0a05"></path><path d="M387 603L436 628L462 599Z" fill="#69501a" stroke="#0a0a05"></path><path d="M490 577L531 521L488 526Z" fill="#604817" stroke="#0a0a05"></path><path d="M309 369L283 358L278 393Z" fill="#876621" stroke="#0a0a05"></path><path d="M278 393L221 451L289 447Z" fill="#443310" stroke="#0a0a05"></path><path d="M299 303L283 358L309 369Z" fill="#916e24" stroke="#0a0a05"></path><path d="M225 542L256 569L261 552Z" fill="#876621" stroke="#0a0a05"></path><path d="M261 552L256 569L326 556Z" fill="#564115" stroke="#0a0a05"></path><path d="M531 521L538 510L478 508Z" fill="#564115" stroke="#0a0a05"></path><path d="M495 404L483 353L469 376Z" fill="#a67e29" stroke="#0a0a05"></path><path d="M469 376L483 353L391 329Z" fill="#9c7626" stroke="#0a0a05"></path><path d="M541 354L483 353L495 404Z" fill="#876621" stroke="#0a0a05"></path><path d="M417 648L436 628L387 603Z" fill="#604817" stroke="#0a0a05"></path><path d="M462 599L484 629L490 577Z" fill="#604817" stroke="#0a0a05"></path><path d="M205 408L221 451L278 393Z" fill="#a67e29" stroke="#0a0a05"></path><path d="M242 488L225 542L261 552Z" fill="#a67e29" stroke="#0a0a05"></path><path d="M394 257L373 306L391 329Z" fill="#a67e29" stroke="#0a0a05"></path><path d="M391 329L373 306L373 378Z" fill="#876621" stroke="#0a0a05"></path><path d="M171 481L225 542L242 488Z" fill="#604817" stroke="#0a0a05"></path><path d="M596 448L540 403L529 452Z" fill="#a67e29" stroke="#0a0a05"></path><path d="M529 452L540 403L495 404Z" fill="#4d3a12" stroke="#0a0a05"></path><path d="M357 627L417 648L387 603Z" fill="#604817" stroke="#0a0a05"></path><path d="M436 628L484 629L462 599Z" fill="#69501a" stroke="#0a0a05"></path><path d="M217 322L241 375L283 358Z" fill="#916e24" stroke="#0a0a05"></path><path d="M283 358L241 375L278 393Z" fill="#916e24" stroke="#0a0a05"></path><path d="M225 542L241 579L256 569Z" fill="#604817" stroke="#0a0a05"></path><path d="M256 569L266 617L332 568Z" fill="#443310" stroke="#0a0a05"></path><path d="M455 668L484 629L436 628Z" fill="#73571c" stroke="#0a0a05"></path><path d="M601 529L569 503L531 521Z" fill="#69501a" stroke="#0a0a05"></path><path d="M531 521L569 503L538 510Z" fill="#a67e29" stroke="#0a0a05"></path><path d="M241 579L266 617L256 569Z" fill="#7d5f1f" stroke="#0a0a05"></path><path d="M370 691L420 660L417 648Z" fill="#9c7626" stroke="#0a0a05"></path><path d="M370 691L417 648L357 627Z" fill="#9c7626" stroke="#0a0a05"></path><path d="M417 648L420 660L436 628Z" fill="#4d3a12" stroke="#0a0a05"></path><path d="M540 580L531 521L490 577Z" fill="#916e24" stroke="#0a0a05"></path><path d="M538 510L569 503L529 452Z" fill="#a67e29" stroke="#0a0a05"></path><path d="M266 617L302 645L332 568Z" fill="#443310" stroke="#0a0a05"></path><path d="M484 629L540 580L490 577Z" fill="#9c7626" stroke="#0a0a05"></path><path d="M241 375L205 408L278 393Z" fill="#916e24" stroke="#0a0a05"></path><path d="M221 451L171 481L242 488Z" fill="#73571c" stroke="#0a0a05"></path><path d="M373 306L299 303L309 369Z" fill="#564115" stroke="#0a0a05"></path><path d="M174 356L189 411L205 408Z" fill="#443310" stroke="#0a0a05"></path><path d="M513 318L464 297L483 353Z" fill="#564115" stroke="#0a0a05"></path><path d="M483 353L464 297L391 329Z" fill="#73571c" stroke="#0a0a05"></path><path d="M373 306L343 262L299 303Z" fill="#73571c" stroke="#0a0a05"></path><path d="M601 362L541 354L540 403Z" fill="#a67e29" stroke="#0a0a05"></path><path d="M540 403L541 354L495 404Z" fill="#604817" stroke="#0a0a05"></path><path d="M420 660L455 668L436 628Z" fill="#564115" stroke="#0a0a05"></path><path d="M484 629L558 614L540 580Z" fill="#916e24" stroke="#0a0a05"></path><path d="M463 705L455 668L420 660Z" fill="#876621" stroke="#0a0a05"></path><path d="M541 354L513 318L483 353Z" fill="#7d5f1f" stroke="#0a0a05"></path><path d="M174 356L205 408L241 375Z" fill="#443310" stroke="#0a0a05"></path><path d="M205 408L189 411L221 451Z" fill="#73571c" stroke="#0a0a05"></path><path d="M189 411L178 454L221 451Z" fill="#443310" stroke="#0a0a05"></path><path d="M191 598L231 634L241 579Z" fill="#73571c" stroke="#0a0a05"></path><path d="M312 716L334 679L275 704Z" fill="#7d5f1f" stroke="#0a0a05"></path><path d="M302 645L334 679L357 627Z" fill="#7d5f1f" stroke="#0a0a05"></path><path d="M147 466L171 481L178 454Z" fill="#4d3a12" stroke="#0a0a05"></path><path d="M178 454L171 481L221 451Z" fill="#9c7626" stroke="#0a0a05"></path><path d="M241 579L231 634L266 617Z" fill="#9c7626" stroke="#0a0a05"></path><path d="M630 504L596 448L569 503Z" fill="#73571c" stroke="#0a0a05"></path><path d="M569 503L596 448L529 452Z" fill="#4d3a12" stroke="#0a0a05"></path><path d="M334 679L370 691L357 627Z" fill="#564115" stroke="#0a0a05"></path><path d="M463 705L498 661L455 668Z" fill="#69501a" stroke="#0a0a05"></path><path d="M455 668L498 661L484 629Z" fill="#876621" stroke="#0a0a05"></path><path d="M394 257L343 262L373 306Z" fill="#443310" stroke="#0a0a05"></path><path d="M280 278L260 296L299 303Z" fill="#69501a" stroke="#0a0a05"></path><path d="M299 303L260 296L283 358Z" fill="#443310" stroke="#0a0a05"></path><path d="M191 598L241 579L225 542Z" fill="#443310" stroke="#0a0a05"></path><path d="M266 617L250 675L302 645Z" fill="#9c7626" stroke="#0a0a05"></path><path d="M438 255L391 329L464 297Z" fill="#a67e29" stroke="#0a0a05"></path><path d="M438 255L394 257L391 329Z" fill="#916e24" stroke="#0a0a05"></path><path d="M171 481L175 552L225 542Z" fill="#604817" stroke="#0a0a05"></path><path d="M498 661L558 614L484 629Z" fill="#4d3a12" stroke="#0a0a05"></path><path d="M540 580L601 529L531 521Z" fill="#916e24" stroke="#0a0a05"></path><path d="M566 302L541 318L541 354Z" fill="#69501a" stroke="#0a0a05"></path><path d="M541 354L541 318L513 318Z" fill="#876621" stroke="#0a0a05"></path><path d="M513 318L485 277L464 297Z" fill="#564115" stroke="#0a0a05"></path><path d="M590 599L601 529L540 580Z" fill="#73571c" stroke="#0a0a05"></path><path d="M533 279L485 277L513 318Z" fill="#9c7626" stroke="#0a0a05"></path><path d="M304 260L280 278L299 303Z" fill="#73571c" stroke="#0a0a05"></path><path d="M179 321L217 322L212 271Z" fill="#a67e29" stroke="#0a0a05"></path><path d="M260 296L217 322L283 358Z" fill="#7d5f1f" stroke="#0a0a05"></path><path d="M175 552L191 598L225 542Z" fill="#876621" stroke="#0a0a05"></path><path d="M485 277L438 255L464 297Z" fill="#564115" stroke="#0a0a05"></path><path d="M343 262L304 260L299 303Z" fill="#876621" stroke="#0a0a05"></path><path d="M212 271L217 322L260 296Z" fill="#7d5f1f" stroke="#0a0a05"></path><path d="M315 234L304 260L343 262Z" fill="#7d5f1f" stroke="#0a0a05"></path><path d="M371 232L343 262L394 257Z" fill="#4d3a12" stroke="#0a0a05"></path><path d="M641 448L603 393L596 448Z" fill="#564115" stroke="#0a0a05"></path><path d="M596 448L603 393L540 403Z" fill="#a67e29" stroke="#0a0a05"></path><path d="M143 414L178 454L189 411Z" fill="#7d5f1f" stroke="#0a0a05"></path><path d="M143 414L147 466L178 454Z" fill="#564115" stroke="#0a0a05"></path><path d="M171 481L129 537L175 552Z" fill="#916e24" stroke="#0a0a05"></path><path d="M229 688L250 675L231 634Z" fill="#9c7626" stroke="#0a0a05"></path><path d="M231 634L250 675L266 617Z" fill="#564115" stroke="#0a0a05"></path><path d="M349 745L379 718L370 691Z" fill="#876621" stroke="#0a0a05"></path><path d="M577 625L590 599L558 614Z" fill="#604817" stroke="#0a0a05"></path><path d="M558 614L590 599L540 580Z" fill="#916e24" stroke="#0a0a05"></path><path d="M430 196L407 237L438 255Z" fill="#a67e29" stroke="#0a0a05"></path><path d="M438 255L407 237L394 257Z" fill="#a67e29" stroke="#0a0a05"></path><path d="M312 716L370 691L334 679Z" fill="#876621" stroke="#0a0a05"></path><path d="M370 691L379 718L420 660Z" fill="#9c7626" stroke="#0a0a05"></path><path d="M217 322L174 356L241 375Z" fill="#69501a" stroke="#0a0a05"></path><path d="M395 737L463 705L420 660Z" fill="#443310" stroke="#0a0a05"></path><path d="M539 681L577 625L558 614Z" fill="#916e24" stroke="#0a0a05"></path><path d="M539 681L558 614L498 661Z" fill="#a67e29" stroke="#0a0a05"></path><path d="M407 237L371 232L394 257Z" fill="#876621" stroke="#0a0a05"></path><path d="M603 393L601 362L540 403Z" fill="#564115" stroke="#0a0a05"></path><path d="M541 318L533 279L513 318Z" fill="#604817" stroke="#0a0a05"></path><path d="M485 277L467 228L438 255Z" fill="#564115" stroke="#0a0a05"></path><path d="M566 302L533 279L541 318Z" fill="#a67e29" stroke="#0a0a05"></path><path d="M642 550L630 504L601 529Z" fill="#443310" stroke="#0a0a05"></path><path d="M601 529L630 504L569 503Z" fill="#a67e29" stroke="#0a0a05"></path><path d="M603 393L629 372L601 362Z" fill="#7d5f1f" stroke="#0a0a05"></path><path d="M142 365L143 414L189 411Z" fill="#604817" stroke="#0a0a05"></path><path d="M275 704L334 679L302 645Z" fill="#876621" stroke="#0a0a05"></path><path d="M371 232L315 234L343 262Z" fill="#4d3a12" stroke="#0a0a05"></path><path d="M304 260L269 238L280 278Z" fill="#564115" stroke="#0a0a05"></path><path d="M217 322L179 321L174 356Z" fill="#604817" stroke="#0a0a05"></path><path d="M250 675L275 704L302 645Z" fill="#876621" stroke="#0a0a05"></path><path d="M601 362L566 302L541 354Z" fill="#9c7626" stroke="#0a0a05"></path><path d="M175 552L170 614L191 598Z" fill="#443310" stroke="#0a0a05"></path><path d="M191 598L170 614L231 634Z" fill="#a67e29" stroke="#0a0a05"></path><path d="M250 675L229 688L275 704Z" fill="#876621" stroke="#0a0a05"></path><path d="M127 583L170 614L175 552Z" fill="#443310" stroke="#0a0a05"></path><path d="M531 706L539 681L498 661Z" fill="#73571c" stroke="#0a0a05"></path><path d="M237 239L260 296L280 278Z" fill="#604817" stroke="#0a0a05"></path><path d="M174 356L142 365L189 411Z" fill="#876621" stroke="#0a0a05"></path><path d="M630 504L641 448L596 448Z" fill="#604817" stroke="#0a0a05"></path><path d="M349 745L395 737L379 718Z" fill="#876621" stroke="#0a0a05"></path><path d="M379 718L395 737L420 660Z" fill="#876621" stroke="#0a0a05"></path><path d="M463 705L509 715L498 661Z" fill="#564115" stroke="#0a0a05"></path><path d="M117 492L171 481L147 466Z" fill="#604817" stroke="#0a0a05"></path><path d="M117 492L129 537L171 481Z" fill="#73571c" stroke="#0a0a05"></path><path d="M173 659L229 688L231 634Z" fill="#73571c" stroke="#0a0a05"></path><path d="M496 221L467 228L485 277Z" fill="#69501a" stroke="#0a0a05"></path><path d="M407 237L410 199L371 232Z" fill="#69501a" stroke="#0a0a05"></path><path d="M371 232L311 182L315 234Z" fill="#73571c" stroke="#0a0a05"></path><path d="M496 221L485 277L533 279Z" fill="#7d5f1f" stroke="#0a0a05"></path><path d="M315 234L269 238L304 260Z" fill="#4d3a12" stroke="#0a0a05"></path><path d="M641 448L634 390L603 393Z" fill="#7d5f1f" stroke="#0a0a05"></path><path d="M647 303L586 268L566 302Z" fill="#a67e29" stroke="#0a0a05"></path><path d="M179 321L142 365L174 356Z" fill="#604817" stroke="#0a0a05"></path><path d="M100 463L117 492L147 466Z" fill="#69501a" stroke="#0a0a05"></path><path d="M634 390L629 372L603 393Z" fill="#69501a" stroke="#0a0a05"></path><path d="M100 463L147 466L143 414Z" fill="#916e24" stroke="#0a0a05"></path><path d="M237 239L212 271L260 296Z" fill="#4d3a12" stroke="#0a0a05"></path><path d="M179 321L149 299L142 365Z" fill="#876621" stroke="#0a0a05"></path><path d="M638 594L642 550L590 599Z" fill="#4d3a12" stroke="#0a0a05"></path><path d="M590 599L642 550L601 529Z" fill="#876621" stroke="#0a0a05"></path><path d="M630 504L675 488L641 448Z" fill="#9c7626" stroke="#0a0a05"></path><path d="M638 594L590 599L637 628Z" fill="#876621" stroke="#0a0a05"></path><path d="M504 772L509 715L463 705Z" fill="#4d3a12" stroke="#0a0a05"></path><path d="M312 716L349 745L370 691Z" fill="#4d3a12" stroke="#0a0a05"></path><path d="M327 781L349 745L312 716Z" fill="#69501a" stroke="#0a0a05"></path><path d="M270 755L312 716L275 704Z" fill="#604817" stroke="#0a0a05"></path><path d="M509 715L531 706L498 661Z" fill="#443310" stroke="#0a0a05"></path><path d="M637 628L590 599L577 625Z" fill="#564115" stroke="#0a0a05"></path><path d="M129 537L127 583L175 552Z" fill="#916e24" stroke="#0a0a05"></path><path d="M170 614L173 659L231 634Z" fill="#443310" stroke="#0a0a05"></path><path d="M101 558L127 583L129 537Z" fill="#4d3a12" stroke="#0a0a05"></path><path d="M430 196L410 199L407 237Z" fill="#916e24" stroke="#0a0a05"></path><path d="M315 234L285 189L269 238Z" fill="#916e24" stroke="#0a0a05"></path><path d="M144 667L173 659L170 614Z" fill="#604817" stroke="#0a0a05"></path><path d="M412 792L419 753L395 737Z" fill="#9c7626" stroke="#0a0a05"></path><path d="M395 737L419 753L463 705Z" fill="#876621" stroke="#0a0a05"></path><path d="M574 758L585 700L531 706Z" fill="#7d5f1f" stroke="#0a0a05"></path><path d="M586 268L533 279L566 302Z" fill="#7d5f1f" stroke="#0a0a05"></path><path d="M523 212L496 221L533 279Z" fill="#443310" stroke="#0a0a05"></path><path d="M467 228L430 196L438 255Z" fill="#443310" stroke="#0a0a05"></path><path d="M269 238L237 239L280 278Z" fill="#69501a" stroke="#0a0a05"></path><path d="M285 189L237 239L269 238Z" fill="#9c7626" stroke="#0a0a05"></path><path d="M584 678L577 625L539 681Z" fill="#564115" stroke="#0a0a05"></path><path d="M85 402L100 463L143 414Z" fill="#69501a" stroke="#0a0a05"></path><path d="M88 497L101 558L129 537Z" fill="#604817" stroke="#0a0a05"></path><path d="M585 700L584 678L539 681Z" fill="#a67e29" stroke="#0a0a05"></path><path d="M490 199L430 196L467 228Z" fill="#73571c" stroke="#0a0a05"></path><path d="M647 303L566 302L601 362Z" fill="#564115" stroke="#0a0a05"></path><path d="M393 142L377 185L410 199Z" fill="#4d3a12" stroke="#0a0a05"></path><path d="M410 199L377 185L371 232Z" fill="#73571c" stroke="#0a0a05"></path><path d="M675 544L675 488L630 504Z" fill="#7d5f1f" stroke="#0a0a05"></path><path d="M641 448L675 437L634 390Z" fill="#443310" stroke="#0a0a05"></path><path d="M634 390L675 362L629 372Z" fill="#a67e29" stroke="#0a0a05"></path><path d="M675 544L630 504L642 550Z" fill="#443310" stroke="#0a0a05"></path><path d="M675 488L675 437L641 448Z" fill="#9c7626" stroke="#0a0a05"></path><path d="M629 372L647 303L601 362Z" fill="#4d3a12" stroke="#0a0a05"></path><path d="M88 497L129 537L117 492Z" fill="#a67e29" stroke="#0a0a05"></path><path d="M116 632L144 667L170 614Z" fill="#7d5f1f" stroke="#0a0a05"></path><path d="M154 280L179 321L212 271Z" fill="#4d3a12" stroke="#0a0a05"></path><path d="M154 280L149 299L179 321Z" fill="#7d5f1f" stroke="#0a0a05"></path><path d="M142 365L85 402L143 414Z" fill="#a67e29" stroke="#0a0a05"></path><path d="M584 678L637 628L577 625Z" fill="#916e24" stroke="#0a0a05"></path><path d="M675 577L675 544L642 550Z" fill="#4d3a12" stroke="#0a0a05"></path><path d="M182 739L242 736L229 688Z" fill="#564115" stroke="#0a0a05"></path><path d="M229 688L242 736L275 704Z" fill="#4d3a12" stroke="#0a0a05"></path><path d="M412 792L460 776L419 753Z" fill="#4d3a12" stroke="#0a0a05"></path><path d="M45 459L88 497L100 463Z" fill="#604817" stroke="#0a0a05"></path><path d="M100 463L88 497L117 492Z" fill="#a67e29" stroke="#0a0a05"></path><path d="M523 212L490 199L496 221Z" fill="#876621" stroke="#0a0a05"></path><path d="M496 221L490 199L467 228Z" fill="#69501a" stroke="#0a0a05"></path><path d="M393 142L345 154L377 185Z" fill="#443310" stroke="#0a0a05"></path><path d="M237 239L199 243L212 271Z" fill="#876621" stroke="#0a0a05"></path><path d="M205 181L199 243L237 239Z" fill="#9c7626" stroke="#0a0a05"></path><path d="M586 268L523 212L533 279Z" fill="#9c7626" stroke="#0a0a05"></path><path d="M675 577L642 550L638 594Z" fill="#7d5f1f" stroke="#0a0a05"></path><path d="M242 736L270 755L275 704Z" fill="#604817" stroke="#0a0a05"></path><path d="M584 678L633 694L637 628Z" fill="#a67e29" stroke="#0a0a05"></path><path d="M531 706L585 700L539 681Z" fill="#69501a" stroke="#0a0a05"></path><path d="M553 778L531 706L509 715Z" fill="#916e24" stroke="#0a0a05"></path><path d="M177 254L154 280L212 271Z" fill="#4d3a12" stroke="#0a0a05"></path><path d="M87 350L85 402L142 365Z" fill="#916e24" stroke="#0a0a05"></path><path d="M675 437L675 395L634 390Z" fill="#443310" stroke="#0a0a05"></path><path d="M377 185L311 182L371 232Z" fill="#916e24" stroke="#0a0a05"></path><path d="M174 163L177 254L199 243Z" fill="#9c7626" stroke="#0a0a05"></path><path d="M199 243L177 254L212 271Z" fill="#73571c" stroke="#0a0a05"></path><path d="M311 182L285 189L315 234Z" fill="#564115" stroke="#0a0a05"></path><path d="M116 632L170 614L127 583Z" fill="#9c7626" stroke="#0a0a05"></path><path d="M173 659L182 739L229 688Z" fill="#916e24" stroke="#0a0a05"></path><path d="M37 539L94 577L101 558Z" fill="#876621" stroke="#0a0a05"></path><path d="M101 558L94 577L127 583Z" fill="#69501a" stroke="#0a0a05"></path><path d="M87 350L142 365L100 302Z" fill="#4d3a12" stroke="#0a0a05"></path><path d="M675 624L675 577L638 594Z" fill="#604817" stroke="#0a0a05"></path><path d="M675 624L638 594L637 628Z" fill="#73571c" stroke="#0a0a05"></path><path d="M412 792L395 737L349 745Z" fill="#4d3a12" stroke="#0a0a05"></path><path d="M419 753L460 776L463 705Z" fill="#9c7626" stroke="#0a0a05"></path><path d="M94 577L116 632L127 583Z" fill="#4d3a12" stroke="#0a0a05"></path><path d="M270 755L327 781L312 716Z" fill="#73571c" stroke="#0a0a05"></path><path d="M675 395L675 362L634 390Z" fill="#73571c" stroke="#0a0a05"></path><path d="M675 362L647 303L629 372Z" fill="#4d3a12" stroke="#0a0a05"></path><path d="M571 172L527 193L523 212Z" fill="#604817" stroke="#0a0a05"></path><path d="M368 818L412 792L349 745Z" fill="#564115" stroke="#0a0a05"></path><path d="M604 218L523 212L586 268Z" fill="#a67e29" stroke="#0a0a05"></path><path d="M523 212L527 193L490 199Z" fill="#a67e29" stroke="#0a0a05"></path><path d="M393 142L410 199L430 196Z" fill="#604817" stroke="#0a0a05"></path><path d="M506 791L504 772L460 776Z" fill="#7d5f1f" stroke="#0a0a05"></path><path d="M460 776L504 772L463 705Z" fill="#604817" stroke="#0a0a05"></path><path d="M647 303L614 251L586 268Z" fill="#69501a" stroke="#0a0a05"></path><path d="M100 302L149 299L154 280Z" fill="#7d5f1f" stroke="#0a0a05"></path><path d="M100 302L142 365L149 299Z" fill="#916e24" stroke="#0a0a05"></path><path d="M393 142L430 196L459 118Z" fill="#876621" stroke="#0a0a05"></path><path d="M377 185L345 154L311 182Z" fill="#9c7626" stroke="#0a0a05"></path><path d="M311 182L285 122L285 189Z" fill="#443310" stroke="#0a0a05"></path><path d="M633 694L584 678L585 700Z" fill="#69501a" stroke="#0a0a05"></path><path d="M675 675L675 624L637 628Z" fill="#9c7626" stroke="#0a0a05"></path><path d="M636 702L633 694L585 700Z" fill="#604817" stroke="#0a0a05"></path><path d="M122 702L182 739L144 667Z" fill="#69501a" stroke="#0a0a05"></path><path d="M144 667L182 739L173 659Z" fill="#876621" stroke="#0a0a05"></path><path d="M242 736L212 775L270 755Z" fill="#564115" stroke="#0a0a05"></path><path d="M270 755L295 799L327 781Z" fill="#73571c" stroke="#0a0a05"></path><path d="M124 241L100 302L154 280Z" fill="#a67e29" stroke="#0a0a05"></path><path d="M254 826L295 799L270 755Z" fill="#604817" stroke="#0a0a05"></path><path d="M327 781L368 818L349 745Z" fill="#916e24" stroke="#0a0a05"></path><path d="M459 118L430 196L490 199Z" fill="#4d3a12" stroke="#0a0a05"></path><path d="M443 827L506 791L460 776Z" fill="#69501a" stroke="#0a0a05"></path><path d="M553 778L574 758L531 706Z" fill="#916e24" stroke="#0a0a05"></path><path d="M521 804L506 791L499 840Z" fill="#73571c" stroke="#0a0a05"></path><path d="M94 577L85 634L116 632Z" fill="#4d3a12" stroke="#0a0a05"></path><path d="M101 692L122 702L144 667Z" fill="#443310" stroke="#0a0a05"></path><path d="M31 601L85 634L94 577Z" fill="#916e24" stroke="#0a0a05"></path><path d="M37 539L101 558L88 497Z" fill="#a67e29" stroke="#0a0a05"></path><path d="M637 766L636 702L585 700Z" fill="#604817" stroke="#0a0a05"></path><path d="M633 694L675 675L637 628Z" fill="#4d3a12" stroke="#0a0a05"></path><path d="M675 362L675 304L647 303Z" fill="#604817" stroke="#0a0a05"></path><path d="M647 303L675 275L614 251Z" fill="#443310" stroke="#0a0a05"></path><path d="M31 412L45 459L85 402Z" fill="#916e24" stroke="#0a0a05"></path><path d="M85 402L45 459L100 463Z" fill="#564115" stroke="#0a0a05"></path><path d="M31 412L85 402L38 357Z" fill="#73571c" stroke="#0a0a05"></path><path d="M614 251L604 218L586 268Z" fill="#7d5f1f" stroke="#0a0a05"></path><path d="M527 193L509 146L490 199Z" fill="#73571c" stroke="#0a0a05"></path><path d="M641 230L604 218L614 251Z" fill="#443310" stroke="#0a0a05"></path><path d="M553 778L509 715L504 772Z" fill="#876621" stroke="#0a0a05"></path><path d="M301 839L368 818L327 781Z" fill="#4d3a12" stroke="#0a0a05"></path><path d="M193 798L195 764L133 775Z" fill="#9c7626" stroke="#0a0a05"></path><path d="M182 739L195 764L242 736Z" fill="#876621" stroke="#0a0a05"></path><path d="M195 764L212 775L242 736Z" fill="#7d5f1f" stroke="#0a0a05"></path><path d="M285 189L205 181L237 239Z" fill="#916e24" stroke="#0a0a05"></path><path d="M177 254L124 241L154 280Z" fill="#73571c" stroke="#0a0a05"></path><path d="M240 129L205 181L285 189Z" fill="#604817" stroke="#0a0a05"></path><path d="M320 130L311 182L345 154Z" fill="#4d3a12" stroke="#0a0a05"></path><path d="M101 692L144 667L116 632Z" fill="#69501a" stroke="#0a0a05"></path><path d="M506 791L553 778L504 772Z" fill="#916e24" stroke="#0a0a05"></path><path d="M675 739L675 675L636 702Z" fill="#a67e29" stroke="#0a0a05"></path><path d="M174 163L124 241L177 254Z" fill="#7d5f1f" stroke="#0a0a05"></path><path d="M28 510L37 539L88 497Z" fill="#564115" stroke="#0a0a05"></path><path d="M358 73L320 130L345 154Z" fill="#4d3a12" stroke="#0a0a05"></path><path d="M637 766L585 700L574 758Z" fill="#73571c" stroke="#0a0a05"></path><path d="M636 702L675 675L633 694Z" fill="#916e24" stroke="#0a0a05"></path><path d="M522 150L509 146L527 193Z" fill="#876621" stroke="#0a0a05"></path><path d="M393 142L358 73L345 154Z" fill="#443310" stroke="#0a0a05"></path><path d="M675 304L675 275L647 303Z" fill="#564115" stroke="#0a0a05"></path><path d="M571 172L523 212L604 218Z" fill="#a67e29" stroke="#0a0a05"></path><path d="M571 172L522 150L527 193Z" fill="#564115" stroke="#0a0a05"></path><path d="M506 791L521 804L553 778Z" fill="#564115" stroke="#0a0a05"></path><path d="M443 827L460 776L412 792Z" fill="#564115" stroke="#0a0a05"></path><path d="M85 634L101 692L116 632Z" fill="#a67e29" stroke="#0a0a05"></path><path d="M193 798L212 775L195 764Z" fill="#4d3a12" stroke="#0a0a05"></path><path d="M76 702L101 692L53 681Z" fill="#876621" stroke="#0a0a05"></path><path d="M368 818L443 827L412 792Z" fill="#a67e29" stroke="#0a0a05"></path><path d="M675 275L641 230L614 251Z" fill="#4d3a12" stroke="#0a0a05"></path><path d="M45 459L28 510L88 497Z" fill="#564115" stroke="#0a0a05"></path><path d="M575 153L571 172L611 141Z" fill="#443310" stroke="#0a0a05"></path><path d="M38 357L85 402L87 350Z" fill="#916e24" stroke="#0a0a05"></path><path d="M45 459L0 450L28 510Z" fill="#443310" stroke="#0a0a05"></path><path d="M38 357L87 350L27 325Z" fill="#604817" stroke="#0a0a05"></path><path d="M27 325L87 350L100 302Z" fill="#604817" stroke="#0a0a05"></path><path d="M507 101L509 146L522 150Z" fill="#73571c" stroke="#0a0a05"></path><path d="M507 101L459 118L509 146Z" fill="#9c7626" stroke="#0a0a05"></path><path d="M509 146L459 118L490 199Z" fill="#9c7626" stroke="#0a0a05"></path><path d="M299 102L285 122L320 130Z" fill="#a67e29" stroke="#0a0a05"></path><path d="M320 130L285 122L311 182Z" fill="#876621" stroke="#0a0a05"></path><path d="M89 182L99 240L124 241Z" fill="#564115" stroke="#0a0a05"></path><path d="M124 241L99 240L100 302Z" fill="#7d5f1f" stroke="#0a0a05"></path><path d="M174 163L199 243L205 181Z" fill="#7d5f1f" stroke="#0a0a05"></path><path d="M193 798L209 803L212 775Z" fill="#916e24" stroke="#0a0a05"></path><path d="M212 775L254 826L270 755Z" fill="#876621" stroke="#0a0a05"></path><path d="M295 799L301 839L327 781Z" fill="#4d3a12" stroke="#0a0a05"></path><path d="M400 870L441 854L443 827Z" fill="#876621" stroke="#0a0a05"></path><path d="M195 764L182 739L133 775Z" fill="#4d3a12" stroke="#0a0a05"></path><path d="M254 826L301 839L295 799Z" fill="#73571c" stroke="#0a0a05"></path><path d="M209 803L254 826L212 775Z" fill="#916e24" stroke="#0a0a05"></path><path d="M99 240L77 264L100 302Z" fill="#604817" stroke="#0a0a05"></path><path d="M133 775L182 739L122 702Z" fill="#69501a" stroke="#0a0a05"></path><path d="M210 862L250 869L254 826Z" fill="#69501a" stroke="#0a0a05"></path><path d="M0 541L31 601L37 539Z" fill="#876621" stroke="#0a0a05"></path><path d="M37 539L31 601L94 577Z" fill="#4d3a12" stroke="#0a0a05"></path><path d="M301 839L355 851L368 818Z" fill="#7d5f1f" stroke="#0a0a05"></path><path d="M644 181L571 172L604 218Z" fill="#443310" stroke="#0a0a05"></path><path d="M571 172L575 153L522 150Z" fill="#73571c" stroke="#0a0a05"></path><path d="M285 122L240 129L285 189Z" fill="#73571c" stroke="#0a0a05"></path><path d="M461 72L415 101L459 118Z" fill="#9c7626" stroke="#0a0a05"></path><path d="M459 118L415 101L393 142Z" fill="#876621" stroke="#0a0a05"></path><path d="M285 122L258 98L240 129Z" fill="#69501a" stroke="#0a0a05"></path><path d="M31 601L45 642L85 634Z" fill="#443310" stroke="#0a0a05"></path><path d="M101 692L76 702L122 702Z" fill="#916e24" stroke="#0a0a05"></path><path d="M190 122L174 163L205 181Z" fill="#564115" stroke="#0a0a05"></path><path d="M441 854L499 840L443 827Z" fill="#7d5f1f" stroke="#0a0a05"></path><path d="M443 827L499 840L506 791Z" fill="#604817" stroke="#0a0a05"></path><path d="M595 821L574 758L553 778Z" fill="#443310" stroke="#0a0a05"></path><path d="M595 821L637 766L574 758Z" fill="#9c7626" stroke="#0a0a05"></path><path d="M53 681L101 692L85 634Z" fill="#443310" stroke="#0a0a05"></path><path d="M400 870L443 827L368 818Z" fill="#7d5f1f" stroke="#0a0a05"></path><path d="M358 73L299 102L320 130Z" fill="#4d3a12" stroke="#0a0a05"></path><path d="M0 418L0 450L31 412Z" fill="#564115" stroke="#0a0a05"></path><path d="M31 412L0 450L45 459Z" fill="#916e24" stroke="#0a0a05"></path><path d="M28 510L0 541L37 539Z" fill="#69501a" stroke="#0a0a05"></path><path d="M595 821L553 778L521 804Z" fill="#4d3a12" stroke="#0a0a05"></path><path d="M0 450L0 508L28 510Z" fill="#916e24" stroke="#0a0a05"></path><path d="M675 275L675 223L641 230Z" fill="#a67e29" stroke="#0a0a05"></path><path d="M641 230L644 181L604 218Z" fill="#69501a" stroke="#0a0a05"></path><path d="M77 264L27 325L100 302Z" fill="#916e24" stroke="#0a0a05"></path><path d="M0 345L0 418L31 412Z" fill="#916e24" stroke="#0a0a05"></path><path d="M0 345L31 412L38 357Z" fill="#876621" stroke="#0a0a05"></path><path d="M0 674L53 681L45 642Z" fill="#876621" stroke="#0a0a05"></path><path d="M45 642L53 681L85 634Z" fill="#564115" stroke="#0a0a05"></path><path d="M0 649L45 642L31 601Z" fill="#564115" stroke="#0a0a05"></path><path d="M0 508L0 541L28 510Z" fill="#4d3a12" stroke="#0a0a05"></path><path d="M97 771L122 702L76 702Z" fill="#916e24" stroke="#0a0a05"></path><path d="M97 771L133 775L122 702Z" fill="#9c7626" stroke="#0a0a05"></path><path d="M210 862L254 826L209 803Z" fill="#7d5f1f" stroke="#0a0a05"></path><path d="M637 766L675 739L636 702Z" fill="#9c7626" stroke="#0a0a05"></path><path d="M675 198L644 181L641 230Z" fill="#916e24" stroke="#0a0a05"></path><path d="M416 900L400 870L346 900Z" fill="#a67e29" stroke="#0a0a05"></path><path d="M355 851L400 870L368 818Z" fill="#7d5f1f" stroke="#0a0a05"></path><path d="M478 900L530 856L499 840Z" fill="#876621" stroke="#0a0a05"></path><path d="M346 900L355 851L333 900Z" fill="#73571c" stroke="#0a0a05"></path><path d="M575 153L507 101L522 150Z" fill="#4d3a12" stroke="#0a0a05"></path><path d="M523 78L507 101L575 153Z" fill="#876621" stroke="#0a0a05"></path><path d="M141 134L134 168L174 163Z" fill="#4d3a12" stroke="#0a0a05"></path><path d="M174 163L134 168L124 241Z" fill="#9c7626" stroke="#0a0a05"></path><path d="M30 215L40 259L77 264Z" fill="#73571c" stroke="#0a0a05"></path><path d="M0 319L0 345L27 325Z" fill="#a67e29" stroke="#0a0a05"></path><path d="M190 122L205 181L240 129Z" fill="#4d3a12" stroke="#0a0a05"></path><path d="M244 42L258 98L260 32Z" fill="#7d5f1f" stroke="#0a0a05"></path><path d="M299 102L258 98L285 122Z" fill="#73571c" stroke="#0a0a05"></path><path d="M358 73L393 142L415 101Z" fill="#7d5f1f" stroke="#0a0a05"></path><path d="M637 766L675 752L675 739Z" fill="#a67e29" stroke="#0a0a05"></path><path d="M675 818L675 752L637 766Z" fill="#876621" stroke="#0a0a05"></path><path d="M675 223L675 198L641 230Z" fill="#7d5f1f" stroke="#0a0a05"></path><path d="M644 181L611 141L571 172Z" fill="#a67e29" stroke="#0a0a05"></path><path d="M0 541L0 601L31 601Z" fill="#564115" stroke="#0a0a05"></path><path d="M242 92L190 122L240 129Z" fill="#916e24" stroke="#0a0a05"></path><path d="M530 856L521 804L499 840Z" fill="#876621" stroke="#0a0a05"></path><path d="M530 856L595 821L521 804Z" fill="#7d5f1f" stroke="#0a0a05"></path><path d="M378 45L358 73L415 101Z" fill="#564115" stroke="#0a0a05"></path><path d="M600 100L611 141L625 91Z" fill="#73571c" stroke="#0a0a05"></path><path d="M40 259L27 325L77 264Z" fill="#69501a" stroke="#0a0a05"></path><path d="M27 325L0 345L38 357Z" fill="#443310" stroke="#0a0a05"></path><path d="M30 215L77 264L99 240Z" fill="#4d3a12" stroke="#0a0a05"></path><path d="M478 900L499 840L441 854Z" fill="#7d5f1f" stroke="#0a0a05"></path><path d="M244 42L242 92L258 98Z" fill="#876621" stroke="#0a0a05"></path><path d="M258 98L242 92L240 129Z" fill="#a67e29" stroke="#0a0a05"></path><path d="M41 723L97 771L76 702Z" fill="#73571c" stroke="#0a0a05"></path><path d="M210 862L209 803L193 798Z" fill="#443310" stroke="#0a0a05"></path><path d="M41 723L76 702L53 681Z" fill="#69501a" stroke="#0a0a05"></path><path d="M523 78L461 72L507 101Z" fill="#564115" stroke="#0a0a05"></path><path d="M507 101L461 72L459 118Z" fill="#4d3a12" stroke="#0a0a05"></path><path d="M127 803L193 798L133 775Z" fill="#916e24" stroke="#0a0a05"></path><path d="M254 826L250 869L301 839Z" fill="#73571c" stroke="#0a0a05"></path><path d="M0 279L0 319L27 325Z" fill="#876621" stroke="#0a0a05"></path><path d="M97 771L127 803L133 775Z" fill="#4d3a12" stroke="#0a0a05"></path><path d="M88 134L89 182L134 168Z" fill="#443310" stroke="#0a0a05"></path><path d="M134 168L89 182L124 241Z" fill="#7d5f1f" stroke="#0a0a05"></path><path d="M40 259L0 279L27 325Z" fill="#7d5f1f" stroke="#0a0a05"></path><path d="M190 122L141 134L174 163Z" fill="#7d5f1f" stroke="#0a0a05"></path><path d="M172 91L141 134L190 122Z" fill="#7d5f1f" stroke="#0a0a05"></path><path d="M0 601L0 649L31 601Z" fill="#69501a" stroke="#0a0a05"></path><path d="M600 100L523 78L575 153Z" fill="#a67e29" stroke="#0a0a05"></path><path d="M0 706L41 723L53 681Z" fill="#73571c" stroke="#0a0a05"></path><path d="M134 872L166 859L127 803Z" fill="#876621" stroke="#0a0a05"></path><path d="M166 859L210 862L193 798Z" fill="#916e24" stroke="#0a0a05"></path><path d="M637 839L639 815L595 821Z" fill="#7d5f1f" stroke="#0a0a05"></path><path d="M595 821L639 815L637 766Z" fill="#73571c" stroke="#0a0a05"></path><path d="M346 900L400 870L355 851Z" fill="#9c7626" stroke="#0a0a05"></path><path d="M400 870L416 900L441 854Z" fill="#4d3a12" stroke="#0a0a05"></path><path d="M530 856L594 851L595 821Z" fill="#7d5f1f" stroke="#0a0a05"></path><path d="M355 851L301 839L333 900Z" fill="#443310" stroke="#0a0a05"></path><path d="M333 900L301 839L254 900Z" fill="#7d5f1f" stroke="#0a0a05"></path><path d="M254 900L301 839L250 869Z" fill="#7d5f1f" stroke="#0a0a05"></path><path d="M582 900L594 851L530 856Z" fill="#443310" stroke="#0a0a05"></path><path d="M416 900L459 900L441 854Z" fill="#4d3a12" stroke="#0a0a05"></path><path d="M0 212L0 279L40 259Z" fill="#69501a" stroke="#0a0a05"></path><path d="M409 31L378 45L415 101Z" fill="#4d3a12" stroke="#0a0a05"></path><path d="M358 73L334 43L299 102Z" fill="#564115" stroke="#0a0a05"></path><path d="M409 31L415 101L461 72Z" fill="#73571c" stroke="#0a0a05"></path><path d="M0 649L0 674L45 642Z" fill="#73571c" stroke="#0a0a05"></path><path d="M459 900L478 900L441 854Z" fill="#916e24" stroke="#0a0a05"></path><path d="M675 140L611 141L644 181Z" fill="#73571c" stroke="#0a0a05"></path><path d="M611 141L600 100L575 153Z" fill="#876621" stroke="#0a0a05"></path><path d="M479 40L461 72L523 78Z" fill="#916e24" stroke="#0a0a05"></path><path d="M479 40L464 48L461 72Z" fill="#7d5f1f" stroke="#0a0a05"></path><path d="M361 0L334 43L378 45Z" fill="#876621" stroke="#0a0a05"></path><path d="M378 45L334 43L358 73Z" fill="#443310" stroke="#0a0a05"></path><path d="M242 92L172 91L190 122Z" fill="#916e24" stroke="#0a0a05"></path><path d="M194 52L172 91L242 92Z" fill="#876621" stroke="#0a0a05"></path><path d="M43 193L99 240L89 182Z" fill="#916e24" stroke="#0a0a05"></path><path d="M43 193L30 215L99 240Z" fill="#9c7626" stroke="#0a0a05"></path><path d="M43 193L89 182L63 121Z" fill="#443310" stroke="#0a0a05"></path><path d="M127 803L166 859L193 798Z" fill="#443310" stroke="#0a0a05"></path><path d="M234 900L254 900L250 869Z" fill="#876621" stroke="#0a0a05"></path><path d="M97 815L127 803L97 771Z" fill="#a67e29" stroke="#0a0a05"></path><path d="M611 900L637 839L594 851Z" fill="#443310" stroke="#0a0a05"></path><path d="M594 851L637 839L595 821Z" fill="#4d3a12" stroke="#0a0a05"></path><path d="M639 815L675 818L637 766Z" fill="#69501a" stroke="#0a0a05"></path><path d="M234 900L250 869L210 862Z" fill="#876621" stroke="#0a0a05"></path><path d="M88 134L134 168L141 134Z" fill="#604817" stroke="#0a0a05"></path><path d="M43 782L97 771L41 723Z" fill="#73571c" stroke="#0a0a05"></path><path d="M43 782L97 815L97 771Z" fill="#916e24" stroke="#0a0a05"></path><path d="M675 198L675 140L644 181Z" fill="#9c7626" stroke="#0a0a05"></path><path d="M464 48L409 31L461 72Z" fill="#443310" stroke="#0a0a05"></path><path d="M541 47L479 40L523 78Z" fill="#73571c" stroke="#0a0a05"></path><path d="M464 48L433 0L409 31Z" fill="#876621" stroke="#0a0a05"></path><path d="M0 674L0 706L53 681Z" fill="#916e24" stroke="#0a0a05"></path><path d="M637 839L675 818L639 815Z" fill="#564115" stroke="#0a0a05"></path><path d="M198 900L234 900L210 862Z" fill="#7d5f1f" stroke="#0a0a05"></path><path d="M478 900L540 900L530 856Z" fill="#4d3a12" stroke="#0a0a05"></path><path d="M637 839L675 841L675 818Z" fill="#564115" stroke="#0a0a05"></path><path d="M127 94L88 134L141 134Z" fill="#a67e29" stroke="#0a0a05"></path><path d="M675 140L625 91L611 141Z" fill="#73571c" stroke="#0a0a05"></path><path d="M600 100L541 47L523 78Z" fill="#9c7626" stroke="#0a0a05"></path><path d="M260 32L258 98L299 102Z" fill="#69501a" stroke="#0a0a05"></path><path d="M172 91L127 94L141 134Z" fill="#9c7626" stroke="#0a0a05"></path><path d="M260 32L299 102L334 43Z" fill="#69501a" stroke="#0a0a05"></path><path d="M568 33L541 47L600 100Z" fill="#604817" stroke="#0a0a05"></path><path d="M433 0L398 0L409 31Z" fill="#a67e29" stroke="#0a0a05"></path><path d="M0 760L43 782L41 723Z" fill="#4d3a12" stroke="#0a0a05"></path><path d="M132 900L198 900L166 859Z" fill="#9c7626" stroke="#0a0a05"></path><path d="M148 29L127 94L172 91Z" fill="#7d5f1f" stroke="#0a0a05"></path><path d="M321 0L260 32L334 43Z" fill="#9c7626" stroke="#0a0a05"></path><path d="M244 42L194 52L242 92Z" fill="#604817" stroke="#0a0a05"></path><path d="M134 872L127 803L97 815Z" fill="#604817" stroke="#0a0a05"></path><path d="M166 859L198 900L210 862Z" fill="#916e24" stroke="#0a0a05"></path><path d="M243 0L194 52L244 42Z" fill="#69501a" stroke="#0a0a05"></path><path d="M30 215L0 212L40 259Z" fill="#916e24" stroke="#0a0a05"></path><path d="M0 181L0 212L30 215Z" fill="#69501a" stroke="#0a0a05"></path><path d="M0 181L30 215L43 193Z" fill="#564115" stroke="#0a0a05"></path><path d="M63 121L89 182L88 134Z" fill="#73571c" stroke="#0a0a05"></path><path d="M675 900L675 841L637 839Z" fill="#604817" stroke="#0a0a05"></path><path d="M540 900L582 900L530 856Z" fill="#4d3a12" stroke="#0a0a05"></path><path d="M132 900L134 872L103 900Z" fill="#a67e29" stroke="#0a0a05"></path><path d="M433 0L464 48L479 40Z" fill="#564115" stroke="#0a0a05"></path><path d="M409 31L398 0L378 45Z" fill="#4d3a12" stroke="#0a0a05"></path><path d="M398 0L361 0L378 45Z" fill="#73571c" stroke="#0a0a05"></path><path d="M260 32L243 0L244 42Z" fill="#4d3a12" stroke="#0a0a05"></path><path d="M0 706L0 760L41 723Z" fill="#564115" stroke="#0a0a05"></path><path d="M73 869L134 872L97 815Z" fill="#604817" stroke="#0a0a05"></path><path d="M103 84L88 134L127 94Z" fill="#9c7626" stroke="#0a0a05"></path><path d="M103 84L63 121L88 134Z" fill="#69501a" stroke="#0a0a05"></path><path d="M502 0L433 0L479 40Z" fill="#876621" stroke="#0a0a05"></path><path d="M625 91L568 33L600 100Z" fill="#604817" stroke="#0a0a05"></path><path d="M541 47L502 0L479 40Z" fill="#916e24" stroke="#0a0a05"></path><path d="M649 28L568 33L625 91Z" fill="#443310" stroke="#0a0a05"></path><path d="M361 0L321 0L334 43Z" fill="#564115" stroke="#0a0a05"></path><path d="M582 900L611 900L594 851Z" fill="#69501a" stroke="#0a0a05"></path><path d="M148 29L103 84L127 94Z" fill="#7d5f1f" stroke="#0a0a05"></path><path d="M148 29L172 91L194 52Z" fill="#443310" stroke="#0a0a05"></path><path d="M0 122L0 181L43 193Z" fill="#443310" stroke="#0a0a05"></path><path d="M321 0L266 0L260 32Z" fill="#9c7626" stroke="#0a0a05"></path><path d="M548 0L502 0L541 47Z" fill="#916e24" stroke="#0a0a05"></path><path d="M675 140L675 80L625 91Z" fill="#73571c" stroke="#0a0a05"></path><path d="M568 33L548 0L541 47Z" fill="#4d3a12" stroke="#0a0a05"></path><path d="M32 827L97 815L43 782Z" fill="#a67e29" stroke="#0a0a05"></path><path d="M134 872L132 900L166 859Z" fill="#a67e29" stroke="#0a0a05"></path><path d="M0 799L32 827L43 782Z" fill="#564115" stroke="#0a0a05"></path><path d="M266 0L243 0L260 32Z" fill="#443310" stroke="#0a0a05"></path><path d="M55 859L73 869L97 815Z" fill="#9c7626" stroke="#0a0a05"></path><path d="M0 760L0 799L43 782Z" fill="#73571c" stroke="#0a0a05"></path><path d="M32 827L55 859L97 815Z" fill="#4d3a12" stroke="#0a0a05"></path><path d="M596 0L548 0L568 33Z" fill="#73571c" stroke="#0a0a05"></path><path d="M0 847L55 859L32 827Z" fill="#443310" stroke="#0a0a05"></path><path d="M164 0L148 29L194 52Z" fill="#4d3a12" stroke="#0a0a05"></path><path d="M103 84L38 77L63 121Z" fill="#564115" stroke="#0a0a05"></path><path d="M63 121L0 122L43 193Z" fill="#443310" stroke="#0a0a05"></path><path d="M39 900L103 900L73 869Z" fill="#a67e29" stroke="#0a0a05"></path><path d="M73 869L103 900L134 872Z" fill="#443310" stroke="#0a0a05"></path><path d="M611 900L675 900L637 839Z" fill="#69501a" stroke="#0a0a05"></path><path d="M675 80L649 28L625 91Z" fill="#69501a" stroke="#0a0a05"></path><path d="M675 45L649 28L675 80Z" fill="#73571c" stroke="#0a0a05"></path><path d="M649 28L596 0L568 33Z" fill="#73571c" stroke="#0a0a05"></path><path d="M144 0L96 41L148 29Z" fill="#7d5f1f" stroke="#0a0a05"></path><path d="M148 29L96 41L103 84Z" fill="#564115" stroke="#0a0a05"></path><path d="M38 77L0 122L63 121Z" fill="#4d3a12" stroke="#0a0a05"></path><path d="M243 0L164 0L194 52Z" fill="#73571c" stroke="#0a0a05"></path><path d="M96 41L38 77L103 84Z" fill="#69501a" stroke="#0a0a05"></path><path d="M675 0L623 0L649 28Z" fill="#a67e29" stroke="#0a0a05"></path><path d="M649 28L623 0L596 0Z" fill="#7d5f1f" stroke="#0a0a05"></path><path d="M164 0L144 0L148 29Z" fill="#564115" stroke="#0a0a05"></path><path d="M0 49L0 94L38 77Z" fill="#4d3a12" stroke="#0a0a05"></path><path d="M0 799L0 847L32 827Z" fill="#9c7626" stroke="#0a0a05"></path><path d="M55 859L39 900L73 869Z" fill="#9c7626" stroke="#0a0a05"></path><path d="M47 29L38 77L96 41Z" fill="#916e24" stroke="#0a0a05"></path><path d="M38 77L0 94L0 122Z" fill="#564115" stroke="#0a0a05"></path><path d="M0 847L39 900L55 859Z" fill="#73571c" stroke="#0a0a05"></path><path d="M675 45L675 0L649 28Z" fill="#73571c" stroke="#0a0a05"></path><path d="M71 0L47 29L96 41Z" fill="#7d5f1f" stroke="#0a0a05"></path><path d="M144 0L71 0L96 41Z" fill="#73571c" stroke="#0a0a05"></path><path d="M0 847L0 900L39 900Z" fill="#916e24" stroke="#0a0a05"></path><path d="M0 0L0 49L47 29Z" fill="#7d5f1f" stroke="#0a0a05"></path><path d="M47 29L0 49L38 77Z" fill="#604817" stroke="#0a0a05"></path><path d="M71 0L47 0L47 29Z" fill="#a67e29" stroke="#0a0a05"></path><path d="M47 0L0 0L47 29Z" fill="#a67e29" stroke="#0a0a05"></path></g></svg>